<svg xmlns="http://www.w3.org/2000/svg" width="24" height="24" viewBox="0 0 24 24"><defs><style>.a{fill:#edeef5;}.b{fill:#586aba;}.c{fill:#ede7e6;}.d{fill:#e3dcdb;}.e{fill:#efe7e6;}.f{fill:#f7edeb;}</style></defs><path class="a" d="M0,12A12,12,0,1,0,12,0,12,12,0,0,0,0,12Z"/><path class="b" d="M90,684.086a11.993,11.993,0,0,0,10.29-5.826v-.017c-.605-.921-4.763-2.316-6.395-2.316-3.237,5.658-7.605.974-7.526.053-2.26-.155-4.985,1.477-6.5,2.538A11.988,11.988,0,0,0,90,684.086Z" transform="translate(-78 -660.086)"/><path class="c" d="M359.264,549.611c.5,1.292,4.473,4.939,7.475-.308l.075,0a3.407,3.407,0,0,1-.832-3.041c-1.507,2.359-4.377,2.5-5.852.062A4.724,4.724,0,0,1,359.264,549.611Z" transform="translate(-350.844 -533.461)"/><path class="d" d="M392.848,501.763c.133.474,3.579,3.691,6.7,2.9-.914-1.125-.59-2.881-.533-3.928C399.339,500.026,392.943,501.131,392.848,501.763Z" transform="translate(-383.641 -488.776)"/><path class="e" d="M665.839,374.651a7.631,7.631,0,0,1-.52,2.742C667.049,376.9,667.457,373.009,665.839,374.651Z" transform="translate(-649.727 -365.478)"/><path class="f" d="M363.537,230.311a5.691,5.691,0,0,1-5.5-1.263c-1.112.888-.834,2.941-1.191,3.316a2.379,2.379,0,0,1-.169-.242c-.311,8.468,7.822,7.894,7.747.449A4.835,4.835,0,0,1,363.537,230.311Z" transform="translate(-348.31 -223.68)"/><path class="b" d="M338.139,114.521a5.691,5.691,0,0,0,5.5,1.263,4.867,4.867,0,0,0,.933,2.329c.576.2,2.243-5.467-2.641-6.237-5.717-.888-6.452,4.145-4.983,5.96C337.306,117.461,337.028,115.409,338.139,114.521Z" transform="translate(-328.412 -109.152)"/></svg>