<?xml version="1.0" encoding="utf-8"?>
<svg version="1.1" xmlns:xlink="http://www.w3.org/1999/xlink" width="16px" height="16px" xmlns="http://www.w3.org/2000/svg">
  <g transform="matrix(1 0 0 1 -1871 -24 )">
    <path d="M 2.67206724862593 8.58631020192223  L 14.0932014225671 8.58631020192223  L 11.5547416747494 11.311928048673  C 11.4671529259618 11.4053801252094  11.4128367280957 11.5355809893307  11.4128367280957 11.6796642271405  C 11.4128367280957 11.8237474649502  11.4671529259618 11.9539483290715  11.5546589072098 12.0472875407812  C 11.7434930488199 12.2502862181465  12.0501674749434 12.2502862181465  12.2393533785968 12.0474229785733  L 15.5804306498545 8.46021761749405  C 15.6814070481733 8.35166422714046  15.7243427093437 8.20837104311789  15.717762689945 8.06649995591218  C 15.7243634012286 7.92465144167181  15.681469123828 7.78083907944626  15.5804306498545 7.6727822943303  L 12.2393533785968 4.08548664138965  C 12.0501674749434 3.88260082885107  11.7434930488199 3.88260082885107  11.5547623666343 4.08548664138965  C 11.4671736178468 4.17893871792611  11.4128574199806 4.30913958204744  11.4128574199806 4.45322281985715  C 11.4128574199806 4.59728348470152  11.4671736178468 4.7275069217882  11.5546795990947 4.82084613349793  L 14.093222114452 7.54655427211004  L 2.67208794051083 7.54655427211004  C 2.40456256062076 7.54655427211004  2.18798060135791 7.77923639890662  2.18798060135791 8.06647738294683  C 2.18798060135791 8.35371836698704  2.40458325250566 8.58633277488758  2.67208794051083 8.58633277488758  Z M 12.8173604914323 2.38897028480734  C 12.8173604914323 1.81805484525174  12.384734561914 1.35521876377745  11.8510080827675 1.35521876377745  L 2.1878564500485 1.35521876377745  C 1.65423343032654 1.35521876377745  1.22150404138377 1.81807741821709  1.22150404138377 2.38897028480734  L 1.22150404138377 13.7599209946213  C 1.22150404138377 14.3307461423155  1.65412997090204 14.7936725156512  2.1878564500485 14.7936725156512  L 11.850904623343 14.7936725156512  C 12.3845069511801 14.7936725156512  12.8172363401229 14.3308138612115  12.8172363401229 13.7599209946213  L 12.8172363401229 11.6924856714575  L 13.7835887487876 11.6924856714575  L 13.7835887487876 13.7599209946213  C 13.7835887487876 14.9016390089057  12.9182334303265 15.827356317785  11.8509460071128 15.827356317785  L 2.1878978338183 15.827356317785  C 1.12061041060459 15.827356317785  0.25525509214355 14.9016615818711  0.25525509214355 13.7599209946213  L 0.25525509214355 2.38897028480734  C 0.25525509214355 1.24725227052288  1.12061041060459 0.321534961643596  2.1878978338183 0.321534961643596  L 11.8509460071128 0.321534961643596  C 12.9182334303265 0.321534961643596  13.7835887487876 1.24722969755754  13.7835887487876 2.38897028480734  L 13.7835887487876 4.45640560797108  L 12.8172363401229 4.45640560797108  L 12.8173397995474 2.38897028480734  Z " fill-rule="nonzero" fill="#ffffff" stroke="none" transform="matrix(1 0 0 1 1871 24 )" />
  </g>
</svg>