<?xml version="1.0" encoding="utf-8"?>
<svg version="1.1" xmlns:xlink="http://www.w3.org/1999/xlink" width="32px" height="32px" xmlns="http://www.w3.org/2000/svg">
  <g transform="matrix(1 0 0 1 -1607 -15 )">
    <path d="M 1.58024692592593 1  L 26.8641975185185 1  C 27.7369437966744 0.76190475  28.4444444444445 1.44413751749254  28 2.28571428571429  L 28 16.5942857142857  C 27.4851401958491 15.990130512882  26.4107993009151 15.5760008732555  25 15.376  L 25 4.57142857142857  C 25.2839506296296 4.57142857142857  25.2839506296296 4.57142857142857  25.2839506296296 4.57142857142857  C 25.2839506296296 4.15064019717993  24.9302003140356 3.80952382142857  24.4938271851852 3.80952382142857  C 24.4938271652237 3.80952382142857  24.4938271681096 3.80952382142857  24.4938271481481 4  L 3.9506172962963 4  C 3.55004459349718 3.8095747699834  3.21289170758668 4.09867208730306  3.1660247037037 4.48228571428571  L 3.16049381481482 4.57142857142857  L 3.16049381481482 27.4285714285714  C 3.16054665256694 27.8148379755282  3.46035129806913 28.1399496915162  3.85817285185185 28.1851428571429  L 3.9506172962963 28  L 16.4187654444444 28  C 17.3166937354664 29.5184669033533  18.5853436614809 30.5748926457046  20.0786172962963 31  L 1.58024692592593 31  C 0.707500647770045 31.23809525  0 30.5558624825075  0 29.7142857142857  L 0 2.28571428571429  C 0 1.44413751749254  0.707500647770045 0.76190475  1.58024692592593 1  Z M 23.7037037037037 16  C 24.1400768325542 16  24.4938271481481 16.3411163757514  24.4938271481481 16.76190475  C 24.4938271481481 15.74603175  24.4938271481481 17.77777775  24.4938271481481 16.76190475  L 24.4946172962963 17.5710476071429  C 25.0659727870417 17.6396665858803  25.6248239983895 17.783747204315  26.1554567777778 17.9992381071429  L 26.5750123333333 17.2998095357143  C 26.7154572328091 17.0616135712709  26.9777257900728 16.9144828955347  27.261878355592 16.9144828955347  C 27.6982514844425 16.9144828955347  28.0520018000365 17.2555992712861  28.0520018000365 17.6763876455347  C 28.0520018000365 17.8118463804479  28.014550550216 17.9448560351112  27.9435061851852 18.0617142857143  L 27.5239506296296 18.7626666785714  C 27.9822222222222 19.0979047857143  28.3922962962963 19.4933333571429  28.7407407407407 19.936  L 29.4676543333333 19.5306666785714  C 29.5888411595524 19.4621588515364  29.7267778762403 19.426044723109  29.8672544249968 19.426044723109  C 30.3036275538473 19.426044723109  30.6573778694413 19.7671610988604  30.6573778694413 20.187949473109  C 30.6573778694413 20.4619545634734  30.5047969921693 20.7148570197943  30.2577777777778 20.8502857142857  L 29.5316543333333 21.2548571428571  C 29.7513086666667 21.7577142857143  29.9030123703704 22.2956190357143  29.9757037037037 22.8571428571429  L 30.8148148148148 22.8571428571429  C 31.2511879538928 22.8571428571429  31.6049382777778 23.1982592408891  31.6049382777778 23.619047625  C 31.6049382777778 24.0398360091109  31.2511879538928 24.3809523928571  30.8148148148148 24.3809523928571  L 29.9757037037037 24.3817142857143  C 29.9045432964887 24.932664233654  29.755126371272 25.4715564853409  29.5316543333333 25.9832381071429  L 30.2569876666667 26.3878095357143  C 30.5040061910048 26.5232384152756  30.6565865305974 26.7761405003969  30.6565865305974 27.050145103783  C 30.6565865305974 27.4709334780317  30.3028362150034 27.812049853783  29.8664630861529 27.812049853783  C 29.7259870056506 27.812049853783  29.5880507315531 27.7759359659712  29.4668641851852 27.7074285714286  L 28.7399506296296 27.3028571428571  C 28.3913681458178 27.7453320156125  27.9820233230973 28.1400573683639  27.5231604814815 28.4761904642857  L 27.9435061851852 29.1771428571429  C 28.0145505502159 29.2940011077459  28.0520018000363 29.4270107624091  28.0520018000363 29.5624694973221  C 28.0520018000363 29.9832578715708  27.6982514844423 30.3243742473221  27.2618783555918 30.3243742473221  C 26.9777257900727 30.3243742473221  26.7154572328091 30.1772435715861  26.5750123333333 29.9390476071429  L 26.1554567777778 29.2388571428572  C 25.6339752962963 29.4506666785714  25.0761481481481 29.5969523928572  24.4946172962963 29.6670476071429  L 24.4938271481481 30.4761904642857  C 24.4938271481481 30.8969788385344  24.1400768325542 31.2380952142857  23.7037037037037 31.2380952142857  C 23.2673305748533 31.2380952142857  22.9135802592593 30.8969788385344  22.9135802592593 30.4761904642857  L 22.9135802592593 29.6670476071429  C 22.3419558563084 29.5984971154843  21.7828340711566 29.4544152981483  21.2519506296296 29.2388571428571  L 20.8323950740741 29.9382857142857  C 20.6919501745983 30.176481678729  20.4296816173347 30.3236123544651  20.1455290518155 30.3236123544651  C 19.709155922965 30.3236123544651  19.355405607371 29.9824959787138  19.355405607371 29.5617076044651  C 19.355405607371 29.4262488695521  19.3928568571915 29.2932392148888  19.4639012222222 29.1763809642857  L 19.8834567777778 28.4754285714286  C 19.42459394924 28.1392954730161  19.0152491390944 27.7445701203757  18.6666666666667 27.30209525  L 17.9397530740741 27.7074285714286  C 17.818566247855 27.7759363984636  17.6806295311671 27.8120505268911  17.5401529824104 27.8120505268911  C 17.10377985356 27.8120505268911  16.750029537966 27.4709341511397  16.750029537966 27.0501457768911  C 16.750029537966 26.7761406865266  16.902610415238 26.5232382302057  17.1496296296296 26.3878095357143  L 17.8757530740741 25.9832381071429  C 17.6522112834018 25.4713147885275  17.5027931024608 24.9321616385597  17.4317037037037 24.3809523928571  L 16.5925925925926 24.3809523928571  C 16.1562194535147 24.3809523928571  15.8024691296296 24.0398360091109  15.8024691296296 23.619047625  C 15.8024691296296 23.1982592408891  16.1562194535147 22.8571428571429  16.5925925925926 22.8571428571429  L 17.4317037037037 22.8571428571429  C 17.5027931024608 22.3059336114403  17.6522112834018 21.7667804614725  17.8757530740741 21.2548571428571  L 17.1504197407407 20.8502857142857  C 16.9034012164025 20.7148568347244  16.7508208768099 20.4619547496031  16.7508208768099 20.1879501462169  C 16.7508208768099 19.7671617719682  17.1045711924039 19.4260453962169  17.5409443212543 19.4260453962169  C 17.6814204017567 19.4260453962169  17.8193566758543 19.4621592840288  17.9405432222222 19.5306666785714  L 18.6674567777778 19.9352381071429  C 19.0151111111111 19.4933333571429  19.4251851851852 19.0979047857143  19.8842469259259 18.76190475  L 19.4639012222222 18.0609523928571  C 19.3928573059094 17.9440944122385  19.3554063057313 17.8110851845583  19.3554063057313 17.675626901387  C 19.3554063057313 17.2548385271383  19.7091566213253 16.913722151387  20.1455297501757 16.913722151387  C 20.4296818104501 16.913722151387  20.6919499825897 17.0608523084116  20.8323950740741 17.2990476071429  L 21.2519506296296 17.9992381071429  C 21.7828340693138 17.7836799395984  22.3419558545245 17.6395981102297  22.9135802592593 17.5710476071429  L 22.9135802592593 16.76190475  C 22.9135802592593 16.3411163757514  23.2673305748533 16  23.7037037037037 16  Z M 22.4205432222222 25.3554285714286  C 21.8874216142987 24.98921602742  21.1477166107798 25.1066225169308  20.7644444444444 25.6182857142857  C 20.384156397731 26.1309555458294  20.5061151427009 26.8437324469437  21.037037037037 27.2114285714286  C 21.5711604814815 27.5847618928571  22.3154567777778 27.4628571428571  22.6923456666667 26.9493333214286  C 23.0719653123999 26.4364150003801  22.9505006296031 25.7241214253068  22.4205432222222 25.3554285714286  Z M 9.48148147703704 22.47619047  C 9.65244066051685 22.47619047  9.81878821069499 22.5296593270853  9.95555555555556 22.6285714285714  C 10.2740512857902 22.8588670956616  10.3651317714678 23.2816802973561  10.1680987777778 23.6152381071429  L 10.1135802592593 23.6952381071429  L 7.74320988888889 26.7428571428571  C 7.50438475264718 27.0499780255834  7.06591180274182 27.1378056367726  6.72 26.9478095357143  L 6.63703703703704 26.8952381071429  L 5.05679011111111 25.7523809642857  C 4.857554915765 25.6085151944993  4.74026872798112 25.382531319523  4.74026872798112 25.142516068648  C 4.74026872798112 24.7217276943994  5.09401904357512 24.380611318648  5.53039217242556 24.380611318648  C 5.66772789965547 24.380611318648  5.80269202502167 24.4151294932809  5.9219752962963 24.4807618928571  L 6.00493825925926 24.5333333214286  L 6.95308640740741 25.2190476071429  L 8.8493827037037 22.7809523928572  C 8.99860097730309 22.5891003118124  9.23278434193654 22.47619047  9.48148147703704 22.47619047  Z M 15.0479012222222 22.8571428571429  C 15.0241975185185 23.1085714285714  15.0123456666667 23.3622857142857  15.0123456666667 23.6190476071429  C 15.0123456666667 24.4114285714286  15.1261234444444 25.1786666428571  15.3394567777778 25.9055238214286  L 12.6419752962963 25.9047618928571  C 12.2056021674458 25.9047618928571  11.8518518518519 25.5636455171058  11.8518518518519 25.1428571428571  L 11.8518518518519 23.6190476071429  C 11.8518518518519 23.1982592328942  12.2056021674459 22.8571428571429  12.6419752962963 22.8571428571429  L 15.0479012222222 22.8571428571429  Z M 27.2594746184011 22.095319487827  C 26.8778320922751 22.095319487827  26.5195408758098 22.2725356021987  26.2968888888889 22.5714285714286  C 25.9162029419114 23.0854437872038  26.0364688863041 23.7992929289084  26.566321 24.1706666785714  C 27.0998203883698 24.5314078334443  27.8343100641606 24.4161257535721  28.2216296296296 23.9108571428571  C 28.6028502393508 23.3967026878027  28.482544451991 22.6822768571845  27.9521975185185 22.3108571428571  C 27.7504521781125 22.1707226207998  27.5081117993811 22.095319487827  27.2594746184011 22.095319487827  Z M 20.9177284074074 19.8415238214286  C 20.6742083974385 20.165098864991  20.5430662524686 20.5546577052139  20.5430662524686 20.954460891254  C 20.5430662524686 21.5666453519995  20.8497819032111 22.1411144194254  21.3665185185185 22.4967618928571  C 21.7018261988883 22.7312166899811  22.1054099466189 22.8574653017143  22.5195928499293 22.8574653017143  C 23.1547642533049 22.8574653017143  23.7507311882076 22.5612956714508  24.1193086296296 22.0624761785714  C 24.7600987407407 21.2175237857143  24.5578271481482 20.02590475  23.6697284074074 19.408  C 23.3345061739375 19.1739661404744  22.9312137615256 19.0479661100697  22.5173561773877 19.0479661100697  C 21.8823739695436 19.0479661100697  21.2865275850847 19.3438427340938  20.9177284074074 19.8422857142857  Z M 9.48148147703704 16.3809523628571  C 9.65244066051685 16.3809523628571  9.81878821069499 16.4344212199424  9.95555555555556 16.5333333214286  C 10.2740512857902 16.7636289885188  10.3651317714678 17.1864421902132  10.1680987777778 17.52  L 10.1135802592593 17.6  L 7.74320988888889 20.6476190357143  C 7.50438475264719 20.9547399184405  7.06591180274182 21.0425675296297  6.72 20.8525714285714  L 6.63703703703704 20.8  L 5.05679011111111 19.6571428571429  C 4.85755503791847 19.5132770770419  4.7402689357823 19.2872932743286  4.7402689357823 19.0472781115564  C 4.7402689357823 18.6264897373078  5.0940192513763 18.2853733615564  5.53039238022675 18.2853733615564  C 5.66772802635137 18.2853733615564  5.80269207485628 18.3198914954414  5.9219752962963 18.3855238214286  L 6.00493825925926 18.43809525  L 6.95308640740741 19.1238095357143  L 8.8493827037037 16.6857142857143  C 8.99860097730309 16.4938622046695  9.23278434193654 16.3809523628571  9.48148147703704 16.3809523628571  Z M 15.9604938148148 19.8095238214286  L 12.6419752962963 19.8095238214286  C 12.2056021674459 19.8095238214286  11.8518518518519 19.4684074456772  11.8518518518519 19.0476190714286  L 11.8518518518519 17.5238095357143  C 11.8518518518519 17.1030211257514  12.2056021674459 16.76190475  12.6419752962963 16.76190475  L 18.7053827037037 16.76190475  C 17.5473789282069 17.5480162974945  16.6050629170433 18.5939580288238  15.9597037037037 19.8095238214286  Z M 11.0103703703704 9.92761903571428  C 11.7428148148148 9.44076189285714  12.525037037037 8.64533332142857  12.9943703703704 7.86361903571428  L 13.7979259259259 8.15847617857143  C 13.6319200127367 8.42886011069461  13.4496153825827 8.68962509056372  13.2519506296296 8.93942857142857  L 13.0441481481481 9.19390475  L 13.0441481481481 12.8007618928571  L 12.1979259259259 12.8007618928571  L 12.1979259259259 10.0990476071429  C 11.9917037037037 10.2910476071429  11.7925925925926 10.4693333214286  11.5934814814815 10.6201904642857  C 11.4725925925926 10.4556190357143  11.1881481481481 10.0921904642857  11.0103703703704 9.92761903571428  Z M 19.8945185185185 8.22704760714285  L 24.3176296296296 8.22704760714285  L 24.3176296296296 8.91961903571428  L 22.3691851851852 8.91961903571428  L 22.3691851851852 9.39961903571428  L 24.1682962962963 9.39961903571428  L 24.1682962962963 11.97790475  C 24.1682962962963 12.3276190357143  24.0971851851852 12.5264761785714  23.8482962962963 12.64990475  C 23.6065185185185 12.7664761785714  23.2722962962963 12.7801904642857  22.8242962962963 12.7801904642857  C 22.773878535682 12.5301976320114  22.6826720496629 12.2894948004873  22.5540740740741 12.0670476071429  C 22.8456296296296 12.0807618928571  23.1442962962963 12.0807618928571  23.2367407407407 12.07390475  C 23.3110123333333 12.07390475  23.3434074074074 12.0563809285714  23.353679 12.0106666785714  L 23.3576296296296 11.9710476071429  L 23.3576296296296 11.35390475  L 22.8385185185185 11.7927618928571  C 22.674962962963 11.5870476071429  22.3691851851852 11.2853333214286  22.0634074074074 11.0110476071429  C 21.859314952254 11.39104585716  21.5424243400357 11.7037808168185  21.1531851851852 11.9093333214286  C 21.0469100126062 11.7620999995953  20.9274037342211 11.6241711043986  20.7960493703704 11.4971428571429  L 20.6980740740741 11.4087618928571  L 20.6980740740741 12.7801904642857  L 19.9442962962963 12.7801904642857  L 19.9442962962963 9.39961903571428  L 21.586962962963 9.39961903571428  L 21.586962962963 8.91961903571428  L 19.8945185185185 8.91961903571428  L 19.8945185185185 8.22704760714285  Z M 21.1531851851852 6.51276189285714  L 22.0634074074074 6.34819046428571  C 22.1329382592593 6.52342857142857  22.2056296296296 6.72914285714285  22.2688395185185 6.92495239285714  L 22.3265185185185 7.11619046428571  L 24.3887407407407 7.11619046428571  L 24.3887407407407 7.84990475  L 19.7096296296296 7.84990475  L 19.7096296296296 9.15961903571428  C 19.7096296296296 10.24990475  19.5460740740741 11.8201904642857  18.5576296296296 12.7596190357143  C 18.450962962963 12.6087618928571  18.1167407407407 12.31390475  17.9531851851852 12.21790475  C 18.4225185185185 11.7584761785714  18.6571851851852 11.1961904642857  18.7780740740741 10.6201904642857  C 18.6074074074074 10.7207618928571  18.4304197407407 10.8243809285714  18.2558024814815 10.9226666785714  L 17.9958518518518 11.06590475  L 17.7540740740741 10.29790475  C 18.1381358303986 10.1341124274991  18.5175337756631 9.96033461864132  18.8918518518518 9.77676189285714  C 18.8965925925926 9.63504760714285  18.9013333333333 9.49333332142857  18.9037037037037 9.35542857142857  L 18.9060740740741 9.15276189285714  L 18.9060740740741 8.95390475  L 18.2945185185185 9.26933332142857  C 18.2392098888889 8.96914285714286  18.073283962963 8.51733332142857  17.8955061851852 8.12876189285714  L 17.8180740740741 7.96647617857143  L 18.4296296296296 7.67161903571429  C 18.5837037037037 7.95733332142857  18.7425185185185 8.30019046428572  18.8483950740741 8.59733332142857  L 18.9060740740741 8.76876189285714  L 18.9060740740741 7.11619046428571  L 21.3238518518518 7.11619046428571  C 21.2906666666667 6.97904760714286  21.2511604814815 6.83885714285714  21.2116543333333 6.70552382142857  L 21.1531851851852 6.51276189285714  Z M 13.7837037037037 8.65904760714286  L 17.7161481481482 8.65904760714285  L 17.7161481481482 9.43390475  L 16.7419259259259 9.43390475  L 16.7419259259259 11.8476190357143  C 16.7419259259259 12.2864761785714  16.6494814814815 12.50590475  16.3294814814815 12.6224761785714  C 16.0237037037037 12.74590475  15.5685925925926 12.7596190357143  14.957037037037 12.7596190357143  C 14.9073706410272 12.4797449212184  14.8188727988511 12.2075884297385  14.6939259259259 11.9504761785714  C 14.9167407407407 11.9580952142857  15.1648395185185 11.96190475  15.3631604814815 11.9626666785714  L 15.5014321111111 11.9641904642857  L 15.7037037037037 11.9641904642857  C 15.8135308518519 11.9641904642857  15.8601481481482 11.9443809285714  15.872 11.8735238214286  L 15.8743703703704 11.83390475  L 15.8743703703704 9.43390475  L 13.7837037037037 9.43390475  L 13.7837037037037 8.65904760714286  Z M 7.08266666666667 9.74933332142857  L 7.84355555555556 9.74933332142857  L 7.84355555555556 10.4007618928571  C 7.84355555555556 11.1413333214286  7.72266666666667 12.0876190357143  6.76266666666667 12.74590475  C 6.64888888888889 12.5813333214286  6.36444444444444 12.3344761785714  6.17244444444444 12.21790475  C 6.9420247037037 11.7074285714286  7.06923455555556 11.04  7.08108640740741 10.4777142857143  L 7.08266666666667 10.3733333214286  L 7.08266666666667 9.74933332142857  Z M 4.62933333333333 12.1561904642857  C 5.01333333333333 11.64190475  5.55377777777778 10.7916190357143  5.98044444444444 9.99619046428571  L 6.59911111111111 10.5447618928571  C 6.29728396296296 11.1154285714286  5.95120988888889 11.7295237857143  5.60513581481481 12.2933333214286  L 5.34755555555556 12.7047618928571  L 4.62933333333333 12.1561904642857  Z M 9.46488888888889 9.74933332142857  L 10.2471111111111 9.74933332142857  L 10.2471111111111 11.84990475  C 10.2479012222222 11.9207618928571  10.2510617407407 11.968  10.2684444444444 11.9847618928571  C 10.2789788807217 11.9993296620843  10.2942831167146 12.0100625143446  10.3119012222222 12.0152381071429  L 10.3395555555556 12.0190476071429  L 10.4533333333333 12.0190476071429  C 10.4888888888889 12.0190476071429  10.5244444444444 12.0121904642857  10.5457777777778 11.9984761785714  C 10.5671111111111 11.9710476071429  10.5813333333333 11.9230476071429  10.5955555555556 11.8201904642857  C 10.6097777777778 11.7104761785714  10.6168888888889 11.4704761785714  10.624 11.16190475  C 10.752 11.2784761785714  11.0008888888889 11.40190475  11.1928888888889 11.4636190357143  C 11.1786666666667 11.7653333214286  11.1502222222222 12.1287618928571  11.1004444444444 12.26590475  C 11.0506666666667 12.4030476071429  10.9795555555556 12.50590475  10.8728888888889 12.5676190357143  C 10.7775291115955 12.6195517987829  10.6715493297667 12.6507563146976  10.5623703703704 12.6590476071429  L 10.4817777777778 12.6636190357143  L 10.112 12.6636190357143  C 9.94133333333333 12.6636190357143  9.75644444444444 12.6087618928571  9.64266666666667 12.4921904642857  C 9.52651851851852 12.3855237857143  9.47437037037037 12.2575237857143  9.46646914814815 11.8902857142857  L 9.46488888888889 11.7721904642857  L 9.46488888888889 9.74933332142857  Z M 8.27733333333333 9.74247617857143  L 9.01688888888889 9.74247617857143  L 9.01688888888889 12.4853333214286  L 8.27733333333333 12.4853333214286  L 8.27733333333333 9.74247617857143  Z M 20.6980740740741 11.35390475  C 21.3238518518518 11.0453333214286  21.5087407407407 10.5447618928571  21.5656296296296 10.0921904642857  L 20.6980740740741 10.0921904642857  L 20.6980740740741 11.35390475  Z M 23.3576296296296 11.3401904642857  L 23.3576296296296 10.0921904642857  L 22.3478518518519 10.0921904642857  C 22.3407407407407 10.1881904642857  22.3194074074074 10.2773333214286  22.3051851851852 10.3733333214286  C 22.6164938148148 10.6247618928571  23.0083950740741 10.9721904642857  23.2596543333333 11.2342857142857  L 23.3576296296296 11.3401904642857  Z M 8.17066666666667 6.54704760714285  L 8.95288888888889 6.36876189285714  C 9.06113581481481 6.57752378571428  9.17412344444444 6.82514285714286  9.25471603703703 7.04609525  L 9.30844444444444 7.20533332142857  L 10.9866666666667 7.20533332142857  L 10.9866666666667 7.93219046428571  L 10.0124444444444 7.93219046428571  C 10.3664197407407 8.31009521428571  10.7764938148148 8.79619046428571  11.0238024814815 9.15961903571428  L 11.1075555555556 9.28990475  L 10.432 9.70819046428571  C 10.342900500435 9.5570539340395  10.2455795807857 9.41056390864393  10.1404444444444 9.26933332142857  C 7.46666666666667 9.45447617857143  7.09688888888889 9.48190475  6.82666666666667 9.58476189285714  C 6.78281779798649 9.32671147716645  6.7186318236163 9.07225993591319  6.63466666666667 8.82361903571428  C 6.79111111111111 8.79619046428571  7.04711111111111 8.74133332142857  7.19644444444444 8.60419046428571  C 7.29125925925926 8.51885714285714  7.49827159259259 8.28190475  7.70844444444444 8.02819046428571  L 7.78666666666667 7.93219046428571  L 6.57777777777778 7.93219046428571  L 6.57777777777778 7.20533332142857  L 8.42666666666667 7.20533332142857  C 8.37140810956572 7.03531429702104  8.3089357749521 6.86755404946004  8.23940740740741 6.70247617857143  L 8.17066666666667 6.54704760714285  Z M 4.50844444444444 8.94704760714285  L 4.94933333333333 8.32990475  C 5.34755555555555 8.47009521428571  5.86903703703704 8.71847617857143  6.18508640740741 8.93104760714285  L 6.29333333333333 9.00876189285714  L 5.824 9.68761903571428  C 5.57748148148148 9.48038092857142  5.08918518518518 9.20304760714285  4.66409877777778 9.01333332142857  L 4.50844444444444 8.94704760714285  Z M 9.29422222222222 8.21333332142857  L 9.77777777777778 7.93219046428571  L 8.72533333333333 7.93219046428571  C 8.59259259259259 8.10590475  8.44720988888889 8.28571428571428  8.30419751851852 8.45790475  L 8.09244444444444 8.70704760714285  L 9.64977777777777 8.62476189285714  C 9.56918518518518 8.52876189285714  9.48859259259259 8.43276189285714  9.41037037037037 8.34285714285714  L 9.29422222222222 8.21333332142857  Z M 11.117037037037 7.84304760714285  C 11.7072592592593 7.47961903571428  12.3899259259259 6.86247617857142  12.7241481481481 6.38247617857142  L 13.5419259259259 6.69790475  C 12.986765406713 7.38911957370566  12.3304325300076 7.99891372714104  11.5934814814815 8.50819046428571  C 11.4477461433758 8.27802441290599  11.2886792959535 8.05595827569973  11.117037037037 7.84304760714285  Z M 4.8 7.05447617857142  L 5.26933333333333 6.45790475  C 5.65491359259259 6.62247617857143  6.15269137037037 6.88457142857143  6.45846914814815 7.11923810714285  L 6.56355555555555 7.20533332142857  L 6.06577777777778 7.86361903571428  C 5.83190122222222 7.63809521428571  5.36256788888889 7.34247617857142  4.95091359259259 7.12990475  L 4.8 7.05447617857142  Z M 14.0823703703704 6.77333332142857  L 17.5383703703704 6.77333332142857  L 17.5383703703704 7.54819046428571  L 14.0823703703704 7.54819046428571  L 14.0823703703704 6.77333332142857  Z " fill-rule="nonzero" fill="#ffffff" stroke="none" transform="matrix(1 0 0 1 1607 15 )" />
  </g>
</svg>