<?xml version="1.0" encoding="utf-8"?>
<svg version="1.1" xmlns:xlink="http://www.w3.org/1999/xlink" width="32px" height="32px" xmlns="http://www.w3.org/2000/svg">
  <g transform="matrix(1 0 0 1 -1474 -16 )">
    <path d="M 31.0598145 8.58632259375  C 31.0598145 12.2136774375  28.8991162058824 16.26632259375  27.0395943823529 19.04  C 25.9323937666316 20.7043205506482  24.7238067774468 22.289820196228  23.4215905882353 23.78632259375  C 23.3320517808828 23.8917811032116  23.2035170275883 23.9502564289728  23.0698942058824 23.94632259375  C 22.9362713740092 23.9502564382042  22.8077366082062 23.8917811116426  22.7181977941177 23.78632259375  C 21.4163152186189 22.2897883614966  20.2080533179492 20.7042894390029  19.1011655294118 19.04  C 17.2921636176471 16.26632259375  15.0809454117647 12.21367740625  15.0809454411765 8.58632259375  C 15.1314653529412 3.84  18.6989492352941 0  23.0698942058824 0  C 27.4418107058824 0  31.0598145 3.84  31.0598145 8.58632259375  Z M 27.9440953235294 8.48  C 27.9440953235294 5.6  25.7833970294118 3.25367740625  23.0698942058824 3.25367740625  C 20.4078828235294 3.25367740625  18.1966646176471 5.6  18.1966645882353 8.48  C 18.1966645882353 11.36  20.3573628823529 13.70632259375  23.0698942058824 13.70632259375  C 25.7338486764706 13.70632259375  27.9440953529412 11.36  27.9440953235294 8.48  Z M 16.2866228529412 18.77367740625  L 15.3316019705882 23.68  L 3.32340461764706 22.24  L 5.03136667647059 15.84  C 5.131435 15.46632259375  5.433583 15.2  5.78527938235294 15.2  L 14.7292490294118 15.2  C 15.1314653529412 16.42632259375  15.6842699117647 17.6  16.2866228529412 18.77367740625  Z M 14.7797689705882 26.24  L 13.7237082352941 32  L 1.76408773529412 32  C 1.51343117647059 31.94632259375  1.26277464705882 31.84  1.11218641176471 31.62632259375  C 0.962874473514408 31.4123440470691  0.907640396741373 31.1403560328317  0.960626647058823 30.88  L 2.56852038235294 24.8  L 14.7797689705882 26.24  Z M 17.6934084117647 23.94632259375  L 18.1461446764706 21.97367740625  C 18.6484292941176 22.72  19.1507139411765 23.41367740625  19.6529985588235 24.16  L 17.6934084117647 23.94632259375  Z M 27.9946152647059 21.97367740625  C 28.1957234117647 21.76  28.3463116470588 21.5463225625  28.4473515 21.33367740625  L 29.5024406764706 25.33367740625  L 25.8844368823529 24.90632259375  C 26.6383495882353 23.94632259375  27.3417423823529 22.98632259375  27.9946152647059 21.97367740625  Z M 17.2416437058824 26.56  L 30.2553818529412 28.05367740625  L 31.0092945588235 30.82632259375  C 31.0503308259571 30.9270511842523  31.0676700638851 31.0368802142898  31.0598145 31.14632259375  C 31.0511941146183 31.3694700894636  30.960906392188 31.5802213162087  30.8081864117647 31.73367740625  C 30.6635971331388 31.8955616362893  30.4652631367489 31.9911122671665  30.2553818529412 32  L 16.1865545294118 32  L 17.2416437058824 26.56  Z " fill-rule="nonzero" fill="#ffffff" stroke="none" transform="matrix(1 0 0 1 1474 16 )" />
  </g>
</svg>