<?xml version="1.0" encoding="utf-8"?>
<svg version="1.1" xmlns:xlink="http://www.w3.org/1999/xlink" width="46px" height="46px" xmlns="http://www.w3.org/2000/svg">
  <g transform="matrix(1 0 0 1 -9 -9 )">
    <path d="M 10.2566060442708 6.02659738392857  C 13.3715959505208 5.18864069419643  16.329535328125 3.35182681026786  17.8266262916667 2.33225975892857  C 19.3900083708639 1.26797275297623  21.5835563514359 1.21094838241708  23.2193131458333 2.192069265625  C 24.7201212447917 3.11445885267857  27.6957171953125 4.79196539285714  30.5263434270833 5.6968311875  C 32.7115706509701 6.42670299728962  35.064843043364 6.71111904574392  37.4003232395833 6.52761906473214  L 39.5897373828125 6.32211257589286  L 39.8276363854167 21.6825281183036  C 39.8276363854167 22.1429264084821  39.82298990625 22.5873939129464  39.8071919010417 23.0063722834821  C 39.710391828789 25.8774414640968  38.8493158991297 28.6915700430041  37.2897373828125 31.2338008549107  L 36.2164040494792 31.2338008549107  L 33.7138181927083 23.528900453125  C 33.4159409785887 22.5982063582374  32.4300867852823 21.9523037469656  31.3041616197917 21.9501644866071  L 31.26698990625 21.9501644866071  C 30.1267019807209 21.966760775326  29.1432578127204 22.6411224905263  28.8740606223958 23.59103028125  L 26.5619798125 31.6456104129464  L 25.3111515260417 30.5663030178572  C 24.843203844242 30.1618693740743  24.2063130322747 29.934217235669  23.5417777578125 29.9338528169643  L 18.5366060442708 29.9338528169643  C 17.1502077478906 29.9378058063932  16.0299076619525 30.904124812347  16.0340201875 32.0924675558036  C 16.0340108706254 32.0948611180822  16.0340062121783 32.0972546920154  16.0340062121783 32.099648267616  C 16.0340062121783 33.2855049641952  17.1531142140169 34.2479354529734  18.5366060442708 34.2518787723214  L 22.5056161380208 34.2518787723214  L 26.1595959505209 37.3950129776786  C 26.7953242832826 37.9452264655773  27.7285621114403 38.157623783313  28.59898990625 37.9501991450893  C 29.4681278822133 37.7379182671424  30.1371280812724 37.1416740449514  30.3507070416667 36.3889870223214  L 31.444484859375 32.5815411473214  L 31.8924040494792 33.96910825  C 32.1304640908498 34.7143475341896  32.816477804051 35.292934068154  33.6896565729167 35.4849177566964  C 32.8394895908731 36.2457021260812  31.918629928339 36.9460367376698  30.9361616197917 37.5790129776786  L 20.1758788151042 44.5064935111607  L 9.4927272890625 37.5702511071429  C 4.33166928899169 34.2417020954052  1.13759269418416 29.1374900428169  0.757373708333331 23.6109437120536  C 0.716215815827037 22.983100351974  0.696072872734342 22.3543743881728  0.696969718749999 21.7255411473214  L 0.696969718749999 21.7040346071429  L 0.924646479166665 6.208207796875  L 3.23208080989583 6.54036363169643  C 5.37410099739583 6.855792203125  7.8692525234375 6.67418179017857  10.2566060442708 6.02659738392857  Z M 31.2772121484375 23.0262857142857  C 31.8468410079495 23.0204515165773  32.3493328341297 23.3447911199936  32.5001616197917 23.815653671875  L 35.2527272890625 32.3091255535714  L 44.0624242369792 32.3091255535714  L 44.0522019947917 32.3003636316964  C 44.7426666666667 32.3003636316964  45.30303028125 32.78386146875  45.30303028125 33.3796709754464  C 45.3030360312192 33.3810001013482  45.3030389062112 33.3823292352442  45.3030389062112 33.3836583702837  C 45.3030389062112 33.9763027916348  44.7436174653579 34.4572264503687  44.0522019947917 34.4589783705357  L 34.2909090963542 34.4589783705357  C 33.7280905713496 34.458050438453  33.2350879441942 34.1354999885416  33.0856161380208 33.6704069419643  L 31.3617777578125 28.3367965290179  L 29.12496971875 36.1213506540179  C 28.9883444757568 36.6013352152382  28.4877164003752 36.9397602289788  27.9113131458333 36.9417835513393  C 27.5795555755208 36.9417835513393  27.2617373828125 36.8286753013393  27.028484859375 36.6263549799107  L 23.0232323359375 33.1725714285714  L 18.5366060442708 33.1725714285714  C 17.8451905737917 33.1708195082998  17.2857691330734 32.6898958495968  17.2857691330734 32.09725142832  C 17.2857691330734 32.095922310394  17.2857720079914 32.0945931936101  17.2857777578125 32.0932640848214  C 17.285769481168 32.0916694565984  17.2857653428304 32.0900748145681  17.2857653428304 32.0884801705646  C 17.2857653428304 31.4958344813302  17.8451890883423 31.0149102942282  18.5366060442708 31.0131601607143  L 23.5417777578125 31.0131601607143  C 23.8744646119792 31.0131601607143  24.1922828046875 31.12786146875  24.4273939557292 31.3309783705357  L 27.2357171953125 33.7572294263393  L 30.0802828046875 23.8459220825893  C 30.2150708121371 23.3709062706135  30.7069524425468 23.0337469610156  31.2772121484375 23.0254891852679  Z M 22.2584347978964 15.6710582787418  C 22.2584347978964 14.7222640415356  21.3627203648141 13.9523782258119  20.2557980052083 13.9497488928571  C 19.1493875854851 13.9523766696974  18.2540872013163 14.7219063255269  18.2540872013163 15.6702617544921  C 18.2540872013163 15.6723880732074  18.2540918000174 15.6745143900954  18.2541009973958 15.6766406941964  L 18.2541009973958 19.1312207745536  L 14.2507070416667 19.1312207745536  C 13.1448484739583 19.1312207745536  12.24808075 19.90386146875  12.2480808098958 20.8581125758929  C 12.2480808098958 21.8115671026786  13.1448484739583 22.5850043258929  14.2507070416667 22.5850043258929  L 18.2541009973958 22.5850043258929  L 18.2541009973958 26.03958440625  C 18.2541009973958 26.6561038727679  18.6351110911458 27.2264242455357  19.2549494713542 27.5354805334821  C 19.8736015654125 27.8441200891494  20.6379943851084 27.8441200891494  21.2566464791667 27.5354805334821  C 21.8777045380725 27.2254847716184  22.2593458600701 26.6556021094054  22.2584242369792 26.03958440625  L 22.2584242369792 22.5850043258929  L 26.2618181927083 22.5850043258929  C 27.3676767604167 22.5850043258929  28.263515140625 21.8123636316964  28.263515140625 20.8581125758929  C 28.2635221872659 20.8562509796475  28.2635257105934 20.8543893748315  28.2635257105934 20.8525277687878  C 28.2635257105934 19.9040444007157  27.3683763355556 19.1342881469326  26.2618181927083 19.1312207745536  L 22.2584242369792 19.1312207745536  L 22.2584242369792 15.6766406941964  C 22.258431277586 15.6747798951611  22.2584347978964 15.6729190875628  22.2584347978964 15.6710582787418  Z " fill-rule="nonzero" fill="#ffffff" stroke="none" transform="matrix(1 0 0 1 9 9 )" />
  </g>
</svg>