<svg xmlns="http://www.w3.org/2000/svg" width="24" height="24" viewBox="0 0 24 24"><defs><style>.a{fill:none;}.b{fill:#fff;}</style></defs><g transform="translate(-1645 -30)"><rect class="a" width="24" height="24" transform="translate(1645 30)"/><path class="b" d="M-3060.442-925.357v-1.7h.511v-1.3a7.987,7.987,0,0,1-4.2-1.729v.013l-.9.9.354.354-1.2,1.2-1.925-1.9,1.2-1.2.354.354.9-.9.013.013a7.989,7.989,0,0,1-1.781-4.23h-1.257v.511h-1.7v-2.724h1.7v.511h1.244a8.024,8.024,0,0,1,1.742-4.243l-.877-.877-.354.354-1.2-1.2,1.938-1.938,1.192,1.2-.354.354.877.877a8.164,8.164,0,0,1,4.243-1.768v-1.218h-.511v-1.7h2.711v1.7h-.511v1.231a7.955,7.955,0,0,1,4.243,1.768l.877-.877-.354-.354,1.205-1.2,1.925,1.912-1.2,1.2-.354-.354-.877.877a8.065,8.065,0,0,1,1.742,4.243h1.257v-.511h1.7v2.7h-1.7v-.511h-1.257a7.991,7.991,0,0,1-1.781,4.23l.013-.013.9.9.354-.354,1.2,1.2-1.925,1.925-1.205-1.2.354-.354-.9-.9a8.03,8.03,0,0,1-4.2,1.729v1.3h.511v1.7Zm-5.016-11a6.377,6.377,0,0,0,6.377,6.377,6.382,6.382,0,0,0,6.377-6.364,6.377,6.377,0,0,0-6.377-6.377A6.366,6.366,0,0,0-3065.458-936.357Zm3.091,2.684a2.1,2.1,0,0,1,2.1-2.1,2.093,2.093,0,0,1,2.1,2.1,2.1,2.1,0,0,1-2.1,2.1A2.1,2.1,0,0,1-3062.367-933.672Zm1.179,0a.911.911,0,0,0,.917.917.911.911,0,0,0,.917-.917.911.911,0,0,0-.917-.917A.911.911,0,0,0-3061.188-933.672Zm3.549-1.833a1.7,1.7,0,0,1,1.7-1.7,1.707,1.707,0,0,1,1.7,1.7,1.7,1.7,0,0,1-1.7,1.7A1.7,1.7,0,0,1-3057.64-935.505Zm1.179,0a.525.525,0,0,0,.524.524.517.517,0,0,0,.524-.524.525.525,0,0,0-.524-.524A.525.525,0,0,0-3056.461-935.505Zm-6.037-3.536a2.364,2.364,0,0,1,2.357-2.357,2.356,2.356,0,0,1,2.357,2.357,2.364,2.364,0,0,1-2.357,2.357A2.364,2.364,0,0,1-3062.5-939.041Zm1.178,0a1.174,1.174,0,0,0,1.179,1.179,1.174,1.174,0,0,0,1.178-1.179,1.174,1.174,0,0,0-1.178-1.179A1.174,1.174,0,0,0-3061.319-939.041Z" transform="translate(4716.08 978.344)"/></g></svg>