<svg xmlns="http://www.w3.org/2000/svg" width="24" height="24" viewBox="0 0 24 24"><defs><style>.a{fill:none;}.b{fill:#fff;}</style></defs><g transform="translate(-1434 -23)"><rect class="a" width="24" height="24" transform="translate(1434 23)"/><path class="b" d="M77.879,84.426a.653.653,0,0,1-.527.266H58.66a.653.653,0,0,1-.619-.863l2.549-7.537a.653.653,0,0,1,.619-.444h3.026l-.848-1.133a6.218,6.218,0,0,1-1.24-4.051,5.917,5.917,0,1,1,10.565,4.052l-.847,1.133H75a.653.653,0,0,1,.624.459l2.353,7.537A.653.653,0,0,1,77.879,84.426Zm-1.8-2.261H68.769v1.22h7.7Zm-15.592-1.5-.921,2.723h4.605l.154-2.723Zm12.157-9.911a4.6,4.6,0,0,0-9.2,0,4.9,4.9,0,0,0,.987,3.183l3.611,4.827,3.616-4.833A4.785,4.785,0,0,0,72.649,70.751Zm2.7,9.061H71.906a.654.654,0,1,1,0-1.307h3.035l-.422-1.351H70.887l-2.314,3.093a.654.654,0,0,1-1.047,0l-2.314-3.093H61.678l-.744,2.2h4.088a.653.653,0,0,1,.652.69l-.189,3.34h1.976V81.511a.653.653,0,0,1,.654-.653h7.56Zm-7.343-6.927a2.418,2.418,0,1,1,2.418-2.418A2.418,2.418,0,0,1,68.006,72.885Zm0-3.529A1.1,1.1,0,0,0,66.9,70.467a1.111,1.111,0,1,0,2.222,0,1.1,1.1,0,0,0-1.111-1.111Z" transform="translate(1377.994 -40)"/></g></svg>