<?xml version="1.0" encoding="utf-8"?>
<svg version="1.1" xmlns:xlink="http://www.w3.org/1999/xlink" width="29px" height="31px" xmlns="http://www.w3.org/2000/svg">
  <g transform="matrix(1 0 0 1 -1788 -16 )">
    <path d="M 20.47039703125 29.83218375  C 20.35808921875 30.00326778125  20.17152771875 30.096068875  19.98125671875 30.096068875  C 19.87128328125 30.096068875  19.7600626875 30.065081875  19.6612496875 30.00022984375  C 18.7147234375 29.37911496875  17.1569955625 29.210749125  16.6275305625 29.19776590625  L 15.93628721875 29.19776590625  L 14.833546875 29.20624015625  C 14.83204390625 29.20624015625  14.83057290625 29.20624015625  14.82906990625 29  L 0.8981310625 29  C 0.57543784375 29.20624015625  0.3138551875 28.9446575  0.3138551875 28.62196428125  L 0.3138551875 27.9198483125  C 0.3039099375 27.72401309375  0.28539446875 26.65098059375  0.97024215625 25.4727394375  C 1.39887953125 24.7352874375  2.01497384375 24.10208475  2.80144859375 23.59068746875  C 3.7543705 22.97104359375  4.9613281875 22.5310219375  6.38884034375 22.28290215625  C 6.39613140625 22.281655  6.40342246875 22.28053575  6.4107455 22.2795444375  C 6.42158615625 22.2780734375  7.52010534375 22.127711375  8.63602075 21.83351084375  C 10.57022934375 21.3235845625  10.73939465625 20.87278621875  10.740577875 20.86837321875  C 10.75196215625 20.82366753125  10.7685269375 20.780752625  10.7897285625 20.740396  C 10.8055898125 20.6560371875  10.8448591875 20.3385564375  10.7698060625 19.4879011875  C 10.5791513125 17.32738203125  9.4535465 16.05055171875  8.5491356875 15.0245913125  C 8.26388909375 14.70100271875  7.99447175 14.39541790625  7.78702840625 14.0957490625  C 6.89201921875 12.802865625  6.8090035 11.33272640625  6.805901625 11.270784375  C 6.8054219375 11.26106296875  6.80519809375 11.2513415625  6.80519809375 11.24162015625  C 6.80519809375 10.6547540625  7.09779971875 10.38479309375  7.3559606875 10.14658659375  L 7.3695195 10.13405109375  C 7.37799375 10.12621640625  7.383334125 10.12039634375  7.386468 10.116654875  C 7.38937803125 10.07476328125  7.368752 9.968435375  7.35480946875 9.8966120625  C 7.3495010625 9.86930259375  7.34419265625 9.84189715625  7.33914009375 9.81433184375  C 7.11478021875 8.59614978125  7.099430625 6.71457746875  7.302397 5.50691628125  C 7.3777059375 3.919000875  8.746921625 2.70344103125  8.80569775 2.65201990625  C 8.80793621875 2.65006921875  8.81017471875 2.64815053125  8.8124131875 2.64623184375  C 9.00898390625 2.47940096875  9.20840071875 2.2971885  9.33516275 2.09508553125  C 9.3503844375 2.07084596875  9.36103321875 2.05204271875  9.36848415625 2.0376844375  C 9.358954625 2.013093125  9.345299875 1.9816264375  9.33426734375 1.95617171875  C 9.25812696875 1.78057878125  9.14306896875 1.51525465625  9.20852859375 1.17417390625  C 9.2480218125 0.968265499999999  9.3984798125 0.600354968749999  9.96222559375 0.449992906249999  C 10.18914375 0.389457937499999  10.4316673125 0.377082343749999  10.60876325 0.368064468749999  L 10.64384346875 0.366241718749999  C 11.34352909375 0.329402687499999  12.0898710625 0.298223843749999  12.844943125 0.356104593749999  C 18.30527303125 0.774732749999999  20.18620575 2.8150454375  20.26359328125 2.9017066875  C 20.2679743125 2.90656740625  20.2722274375 2.91152403125  20.27638459375 2.916544625  C 20.71346425 3.44018959375  21.03724471875 4.09264321875  21.23877209375 4.8557738125  C 21.30173740625 5.093884375  21.34218996875 5.29378084375  21.36572603125 5.48302853125  C 21.55644471875 6.591301125  21.52462628125 7.7300490625  21.48391790625 8.4914528125  C 21.4610214375 8.9188110625  21.41337375 9.36740290625  21.333907625 9.90319965625  C 21.31229028125 10.048701  21.3360501875 10.07709775  21.34500409375 10.0877785  C 21.36870003125 10.11611128125  21.397704375 10.14690640625  21.4283715625 10.1794923125  C 21.54908971875 10.30759746875  21.71438565625 10.4830305  21.8022620625 10.76453565625  C 21.8463281875 10.90524025  21.86692221875 11.05704134375  21.86692221875 11.24165215625  C 21.86692221875 11.2513735625  21.86666640625 11.26109496875  21.8662186875 11.270816375  C 21.86311678125 11.332758375  21.7801010625 12.802897625  20.885123875 14.0957490625  C 20.67764853125 14.395449875  20.4082631875 14.7010346875  20.12301659375 15.0245913125  C 19.2185738125 16.05051971875  18.0930009375 17.32738203125  17.90234621875 19.48796515625  C 17.82729309375 20.33862040625  17.86656246875 20.6560691875  17.88242371875 20.74045996875  C 17.90362534375 20.78081659375  17.920190125 20.8237315  17.93157440625 20.86840521875  C 17.932725625 20.87281821875  18.10256246875 21.32508759375  20.04559709375 21.83603715625  C 21.16138459375 22.12943821875  22.25053415625 22.2781054375  22.26140678125 22.2795764375  C 22.27090434375 22.2808555625  22.2803699375 22.28239053125  22.28980353125 22.28411734375  C 23.730298875 22.5512961875  24.9447075 23.00260621875  25.89935625 23.62547990625  C 26.68848521875 24.1403628125  27.30342828125 24.77241428125  27.727141 25.50404625  C 28.3990694375 26.66431559375  28.37172796875 27.713876  28.35826509375 27.92416540625  L 28.35826509375 28.62206021875  C 28.35826509375 28.9447534375  28.0966824375 29.20633609375  27.77398921875 29.20633609375  L 22.24637696875 29.20633609375  C 21.92368375 29.20633609375  21.66210109375 28.9447534375  21.66210109375 28.62206021875  C 21.66210109375 28.299367  21.92368375 28.03778434375  22.24637696875 28.03778434375  L 27.18977734375 28.03778434375  L 27.18977734375 27.90305971875  C 27.18977734375 27.88160228125  27.19006515625 27.86849115625  27.19233559375 27.84776921875  C 27.195597375 27.8006331875  27.243181125 26.9623855  26.681418 26.031176875  C 26.34327925 25.4706289375  25.850493375 24.98088096875  25.2167150625 24.5755238125  C 24.4010760625 24.0538615  23.34914928125 23.6702815625  22.0900669375 23.43543278125  C 21.94507725 23.41535040625  20.8709255 23.2615346875  19.74378571875 22.964807875  C 17.53248496875 22.38264259375  16.99489746875 21.7350176875  16.83161615625 21.264936375  C 16.706485 21.02225290625  16.63645246875 20.5400838125  16.73833540625 19.385154875  C 16.96272728125 16.842366875  18.28269634375 15.3450780625  19.246490875 14.2517713125  C 19.51984153125 13.94170953125  19.7559055 13.67392309375  19.92439925 13.430536125  C 20.58439978125 12.4770705625  20.68807346875 11.35866084375  20.69830653125 11.22409609375  C 20.69728321875 11.1537118125  20.6901520625 11.123364375  20.68698621875 11.1131633125  C 20.6792155 11.08822021875  20.62769840625 11.03356928125  20.5779081875 10.980709125  C 20.5388306875 10.93923325  20.49454071875 10.892193125  20.4486518125 10.8373503125  C 20.20021225 10.5403356875  20.11169628125 10.1786289375  20.1780193125 9.73157203125  C 20.25201715625 9.2328061875  20.2961791875 8.81887884375  20.31706103125 8.42893521875  C 20.3780436875 7.288236625  20.34561765625 6.436813875  20.2119483125 5.6682789375  C 20.21015753125 5.65807784375  20.20865453125 5.6478128125  20.20740740625 5.63754778125  C 20.19081065625 5.4988578125  20.15956784375 5.34523396875  20.10904209375 5.15413153125  C 19.95321175 4.564003625  19.71132775 4.06754025  19.3900735625 3.67810828125  C 19.336509875 3.6234893125  18.90927953125 3.20543675  17.95622971875 2.75073703125  C 16.2411365625 1.93250778125  14.18150896875 1.63044059375  12.7556916875 1.52110671875  C 12.0702364375 1.46856634375  11.3668733125 1.49821025  10.70524190625 1.533066625  L 10.668402875 1.53495334375  C 10.6132083125 1.5377674375  10.52040721875 1.54250021875  10.432211 1.5513901875  C 10.508703125 1.7339224375  10.60262346875 2.00864815625  10.50397034375 2.33690559375  C 10.4669394375 2.460022125  10.41011396875 2.5804205  10.32511559375 2.71594459375  C 10.11473025 3.0513651875  9.82750096874999 3.31707303125  9.57340124999999 3.532990625  C 9.52348309375 3.5780480625  8.50391837499999 4.51287028125  8.46867824999999 5.58730978125  C 8.46778284374999 5.61449134375  8.46500074999999 5.641577  8.46033190624999 5.6683748125  C 8.27370643749999 6.740384  8.28630590624999 8.50526740625  8.48840887499999 9.6025714375  C 8.49278990624999 9.62649121875  8.49742674999999 9.650251125  8.50203162499999 9.6739150625  C 8.56390965624999 9.99283484375  8.66748743749999 10.52655296875  8.16203812499999 10.99273290625  L 8.14844734374999 11.005300375  C 8.08324356249999 11.06545159375  7.99396009374999 11.14782775  7.97918609374999 11.1761925  C 7.97928203124999 11.1761925  7.97502890624999 11.18952746875  7.97403759374999 11.2256949375  C 7.98430262499999 11.35993990625  8.08823215624999 12.47758215625  8.74791290624999 13.4305360625  C 8.91640665624999 13.67392303125  9.15247062499999 13.9416775  9.42582128124999 14.25177125  C 10.38961584375 15.345046  11.70955290625 16.8423668125  11.93394478125 19.38509084375  C 12.03582771875 20.54005178125  11.9657951875 21.022220875  11.84066403125 21.26490434375  C 11.67735075 21.734985625  11.13979521875 22.38261053125  8.92849446874999 22.96477584375  C 7.79208096874999 23.263965  6.70955090624999 23.4178126875  6.57882353124999 23.43584846875  C 5.33400353124999 23.65330103125  4.29144637499999 24.025944375  3.48006049999999 24.54351346875  C 2.84925618749999 24.94589665625  2.35595865624999 25.43724353125  2.01382259374999 26.0038993125  C 1.44249793749999 26.95020171875  1.47840959374999 27.812049375  1.48083996874999 27.858162125  C 1.48240690624999 27.875142625  1.48253481249999 27.88527975  1.48253481249999 27.90296375  L 1.48253481249999 28  L 14.8266395 28  L 15.92937984375 28.0291501875  C 15.93085084375 28.0291501875  15.9323538125 28.0291501875  15.9338568125 28.0291501875  L 16.63459771875 28.0291501875  C 16.63901071875 28.0291501875  16.64335978125 28.02918215625  16.64777278125 28.02931009375  C 16.7382714375 28.03132471875  18.880467 28.09003690625  20.30244690625 29.02316425  C 20.57224796875 29.20019621875  20.647429 29.56238265625  20.47039703125 29.83218375  Z M 17.774145125 20.5950225625  C 17.76183346875 20.58293478125  17.7482426875 20.5707190625  17.73334078125 20.55863125  C 17.74753915625 20.5701434375  17.76116190625 20.58229521875  17.774145125 20.5950225625  Z M 10.898422875 20.59463884375  C 10.91127815625 20.58207134375  10.924773 20.5700475  10.9388115 20.55863125  C 10.9240695 20.57059115625  10.91063859375 20.58264696875  10.898422875 20.59463884375  Z " fill-rule="nonzero" fill="#ffffff" stroke="none" transform="matrix(1 0 0 1 1788 16 )" />
  </g>
</svg>