<svg xmlns="http://www.w3.org/2000/svg" width="24" height="24" viewBox="0 0 24 24"><defs><style>.a,.b{fill:#91a6cb;}.a{opacity:0;}</style></defs><rect class="a" width="24" height="24"/><path class="b" d="M19.541,20.438H17.964a.207.207,0,0,1-.21-.2,7.584,7.584,0,0,0-2.305-5.246,8.009,8.009,0,0,0-11.146,0A7.6,7.6,0,0,0,2,20.238a.2.2,0,0,1-.21.2H.211a.212.212,0,0,1-.15-.062A.205.205,0,0,1,0,20.227a9.377,9.377,0,0,1,.776-3.546,9.623,9.623,0,0,1,2.117-3.069,9.8,9.8,0,0,1,3.137-2.068l.018-.008.013,0a6.355,6.355,0,0,1-2.7-5.164A6.448,6.448,0,0,1,9.875,0a6.449,6.449,0,0,1,6.514,6.368,6.342,6.342,0,0,1-2.7,5.161l.016.006.017.006a9.9,9.9,0,0,1,3.137,2.07,9.564,9.564,0,0,1,2.117,3.069,9.385,9.385,0,0,1,.774,3.547.2.2,0,0,1-.06.149A.211.211,0,0,1,19.541,20.438ZM9.875,1.951A4.535,4.535,0,0,0,6.682,3.246a4.346,4.346,0,0,0,0,6.244,4.59,4.59,0,0,0,6.388,0,4.346,4.346,0,0,0,0-6.244A4.542,4.542,0,0,0,9.875,1.951Z" transform="translate(2.124 1.781)"/></svg>